# xmcd
#
# Track frame offsets: 
#        150
#        14929
#        32333
#        48672
#        65082
#        81351
#        91606
#        107399
#        124926
#        144042
#
# Disc length: 2078 seconds
#
# Revision: 0
# Processed by: cddbd v1.5.2PL0 Copyright (c) Steve Scherf et al.
# Submitted via: ExactAudioCopy v1.3
#
DISCID=7e081c0a
DTITLE=Steinar Karlsen - Tur
DYEAR=2015
DGENRE=Blues
TTITLE0=Dromedar
TTITLE1=Jordplog
TTITLE2=Rv-7
TTITLE3=Naken
TTITLE4=Skurk
TTITLE5=Ull
TTITLE6=Skodde
TTITLE7=Kråkeslåtten
TTITLE8=U-864
TTITLE9=Midnatt
EXTD=
EXTT0=
EXTT1=
EXTT2=
EXTT3=
EXTT4=
EXTT5=
EXTT6=
EXTT7=
EXTT8=
EXTT9=
PLAYORDER=
